<svg width="29" height="34" viewBox="0 0 29 34" fill="none" xmlns="http://www.w3.org/2000/svg">
<path d="M21.1548 12.9975V27.9438L28.4699 23.7218V8.50464L21.1548 12.9975Z" fill="#33369F"/>
<path d="M14.9008 0.399414L0.609375 8.21119L8.44372 12.9976L14.8783 9.38521L21.1548 12.9976L28.4698 8.50469L14.9008 0.399414Z" fill="#B7B9E7"/>
<path d="M0.609375 8.21118L8.4663 12.9976L8.39857 20.3804L17.1586 25.1216L17.2489 33.2043L0.609375 23.767V8.21118Z" fill="#7173CD"/>
<path d="M14.8782 9.38513L21.1547 12.9975C21.1547 12.9975 21.1718 20.4804 21.1718 20.3675C21.6277 20.5866 14.9685 17.0614 14.9685 17.0614L14.8782 9.38513Z" fill="#7173CD"/>
<path d="M8.39856 20.3803L14.9686 17.0614L14.8783 9.38513L8.46629 12.9975L8.39856 20.3803Z" fill="#33369F"/>
<path d="M17.1586 25.1216L8.39856 20.3804L14.9686 17.0615L23.3674 21.5318L17.1586 25.1216Z" fill="#B7B9E7"/>
<path d="M17.2489 33.2044L23.2545 29.163L23.3673 21.5319L17.1586 25.1217L17.2489 33.2044Z" fill="#33369F"/>
<path d="M1.37903 8.68531C3.72707 10.1303 6.11817 11.5539 8.46622 12.9989C10.6111 11.8023 12.7341 10.582 14.8789 9.38539C16.9786 10.582 19.0571 11.801 21.1568 12.9976C23.3016 11.6429 25.4709 10.3806 27.6051 9.03526L14.8803 1.39282C10.3874 3.83118 5.8945 6.24695 1.37903 8.68531Z" fill="#B7B9E7"/>
</svg>
